PathFileType	4	(X/Y/Z)	D:\TRACE\spotREDO_2-26-24\spot_Both_Motion_3_5-platform.trc
DataRate	CameraRate	NumFrames	NumMarkers	Units	OrigDataRate	OrigDataStartFrame	OrigNumFrames
100.00	100.00	      48	5	mm	100.00	2626	      7000
Frame#	Time	Left_Front			Right_Front			Left_Aft			Right_Aft			Post			
		X1	Y1	Z1	X2	Y2	Z2	X3	Y3	Z3	X4	Y4	Z4	X5	Y5	Z5	

2626	26.250	-701.50543	67.38764	-552.85590	713.49542	66.24058	-468.59671	-772.23047	-71.72025	657.82904	797.05695	-64.79146	663.26910	-7.62736	738.04425	-880.67029	
2627	26.260	-701.57532	67.38015	-552.87787	713.37866	66.40926	-468.77469	-772.30823	-71.77143	657.80414	797.03638	-64.85986	663.26788	-7.68722	738.05200	-880.58563	
2628	26.270	-701.59680	67.37202	-552.84509	713.37964	66.43900	-468.71014	-772.34222	-71.81560	657.81506	796.99963	-64.91632	663.30023	-7.73339	738.07452	-880.55786	
2629	26.280	-701.64404	67.38401	-552.85974	713.39832	66.48435	-468.57376	-772.35785	-71.82045	657.83887	796.98303	-64.95457	663.34747	-7.75825	738.05975	-880.61078	
2630	26.290	-701.64618	67.44625	-552.80951	713.36658	66.63477	-468.47226	-772.39465	-71.81372	657.82782	796.98889	-64.93230	663.35400	-7.75017	738.07794	-880.74585	
2631	26.300	-701.67517	67.49245	-552.74286	713.38080	66.67513	-468.36295	-772.39294	-71.81399	657.85748	796.94495	-64.87821	663.30774	-7.66081	738.09760	-880.92126	
2632	26.310	-701.70148	67.44550	-552.80127	713.33368	66.63103	-468.35474	-772.41199	-71.79708	657.84094	796.90472	-64.93762	663.33551	-7.66804	738.08881	-881.01740	
2633	26.320	-701.72467	67.39932	-552.83435	713.33514	66.53700	-468.42590	-772.40808	-71.81770	657.84100	796.86487	-64.94642	663.33630	-7.71924	738.10944	-881.10291	
2634	26.330	-701.70795	67.37182	-552.84839	713.31030	66.53519	-468.49319	-772.42010	-71.84348	657.83472	796.84613	-64.86437	663.32562	-7.72021	738.09308	-881.10974	
2635	26.340	-701.86829	67.81805	-552.92773	713.35803	66.53627	-468.42841	-772.40558	-71.76973	657.82587	796.91534	-64.89174	663.32837	-7.72893	738.10260	-881.08441	
2636	26.350	-701.66034	67.44984	-552.98743	713.35217	66.58791	-468.38028	-772.39172	-71.73626	657.88165	796.94440	-64.82913	663.32007	-7.69796	738.07617	-880.94000	
2637	26.360	-701.66071	67.38728	-553.01398	713.31110	66.55764	-468.38510	-772.39301	-71.77180	657.84161	796.93713	-64.75166	663.29395	-7.70601	738.00696	-880.84491	
2638	26.370	-701.51587	67.19408	-553.11963	713.34180	66.41741	-468.41342	-772.39142	-71.73475	657.84479	796.91333	-64.74997	663.25177	-7.74576	737.99750	-880.72491	
2639	26.380	-701.58893	67.03461	-552.80908	713.45367	66.15762	-468.40512	-772.39014	-71.71468	657.84790	796.81415	-64.55520	663.16180	-7.79767	737.97235	-880.62915	
2640	26.390	-701.49530	66.92864	-552.94128	713.43744	66.03062	-468.44803	-772.41461	-71.63522	657.81665	796.73999	-64.44292	663.09473	-7.64163	737.60321	-880.69257	
2641	26.400	-701.65552	66.80588	-552.91675	713.39587	65.93304	-468.52100	-772.32007	-71.41645	657.77869	796.65839	-64.34344	663.00616	-7.61887	737.24072	-880.83588	
2642	26.410	-701.50452	66.57063	-553.00793	713.39606	65.71577	-468.56381	-772.36407	-71.31023	657.70459	796.60742	-64.21780	662.97626	-7.62379	736.92725	-881.21057	
2643	26.420	-701.57043	66.47308	-553.03754	713.27954	65.50966	-468.67633	-772.43365	-71.21279	657.63257	796.61261	-64.14101	662.92761	-7.54835	736.72986	-881.63501	
2644	26.430	-701.67401	66.12024	-552.62311	713.19019	65.27620	-468.77774	-772.52808	-70.95227	657.59595	796.53937	-63.95702	662.86047	-7.62959	736.43365	-882.18140	
2645	26.440	-701.51031	66.28415	-553.42090	713.19977	65.15897	-468.88696	-772.47101	-70.73215	657.51086	796.68665	-63.80642	662.88477	-7.87789	736.06396	-882.79248	
2646	26.450	-701.69885	66.38858	-553.53522	713.16626	65.07001	-468.83551	-772.31464	-70.32828	657.51215	796.73187	-63.65570	662.85889	-7.66290	735.81689	-883.24512	
2647	26.460	-701.60663	65.85790	-553.48132	713.21893	64.80136	-468.96191	-772.34589	-69.97405	657.46039	796.87292	-63.49951	662.84125	-7.43824	735.35034	-884.05298	
2648	26.470	-701.60413	65.57505	-553.55896	713.04279	64.61401	-469.18100	-772.40411	-69.65594	657.50525	796.78168	-63.16854	662.83063	-7.42539	735.13666	-884.35925	
2649	26.480	-701.65057	65.35239	-553.68451	713.05060	64.48712	-469.26279	-772.38947	-69.49108	657.49847	796.83282	-62.92871	662.80060	-7.43009	734.98694	-884.67670	
2650	26.490	-701.56958	64.97956	-553.82135	713.05634	64.32834	-469.41248	-772.39496	-69.30468	657.44568	796.77673	-62.66583	662.85217	-7.72303	734.64923	-884.90546	
2651	26.500	-701.67059	64.75742	-553.81519	713.10712	64.00235	-469.43280	-772.41644	-69.13935	657.39423	796.75598	-62.33816	662.78912	-7.78568	734.24579	-884.99890	
2652	26.510	-701.79083	64.75235	-553.81311	713.06696	63.95112	-469.55127	-772.43323	-68.99799	657.40637	796.82300	-61.81317	662.84015	-8.03194	733.83801	-885.03113	
2653	26.520	-701.77332	64.62224	-553.88568	712.98535	63.86168	-469.68005	-772.49097	-68.78692	657.31610	796.85712	-61.46247	662.68066	-7.93527	733.37598	-885.06348	
2654	26.530	-701.69299	64.48072	-554.01031	713.07898	63.75032	-469.71500	-772.40985	-68.43098	657.33301	796.68762	-61.31353	662.64166	-7.57538	733.03198	-885.22021	
2655	26.540	-701.59869	64.25928	-554.01099	713.16119	63.62910	-469.85043	-772.34296	-68.11366	657.26532	796.65039	-61.27599	662.59320	-7.48304	732.65930	-885.49127	
2656	26.550	-701.45062	64.02120	-554.00574	713.16162	63.52562	-469.93539	-772.30585	-67.77469	657.18646	796.63055	-61.20093	662.50690	-7.42517	732.46783	-885.70380	
2657	26.560	-701.48633	63.63076	-554.10950	713.18921	63.20992	-470.10025	-772.28125	-67.56120	657.15955	796.71954	-61.01863	662.46320	-7.64802	732.14087	-886.22150	
2658	26.570	-701.36462	63.24345	-554.25281	713.18341	62.82582	-470.20834	-772.26996	-67.16813	657.14435	796.91467	-60.82675	662.45239	-7.75765	731.68811	-886.80157	
2659	26.580	-701.53119	63.29728	-554.45239	713.27997	62.49337	-470.16910	-772.19446	-67.09394	657.14459	797.03558	-60.59118	662.37158	-7.70177	731.18524	-887.36151	
2660	26.590	-701.56207	62.93492	-554.48297	713.28009	62.23686	-470.24036	-772.25507	-66.84113	657.09485	797.02673	-60.19112	662.37964	-7.42796	730.72693	-887.93500	
2661	26.600	-701.54767	62.58925	-554.59564	713.29291	61.99295	-470.30737	-772.23022	-66.64558	657.04871	796.87506	-59.76997	662.26794	-7.40191	730.48608	-888.57611	
2662	26.610	-701.35925	62.31128	-554.77222	713.24255	61.84749	-470.44659	-772.20325	-66.47852	656.99817	796.83258	-59.37862	662.27661	-7.45355	730.07312	-889.13776	
2663	26.620	-701.32306	62.03321	-554.84467	713.30310	61.61097	-470.52832	-772.13220	-66.16255	656.87543	796.89063	-58.69899	662.39301	-7.48322	729.47540	-889.50604	
2664	26.630	-701.28131	61.87935	-554.89709	713.36151	61.31785	-470.55704	-772.15881	-65.70296	656.86005	796.78143	-58.33130	662.44043	-7.29817	729.00336	-889.89075	
2665	26.640	-701.32043	61.70353	-555.02246	713.39575	61.11166	-470.67749	-772.05890	-65.11696	656.72473	796.78192	-58.30200	662.42999	-7.46237	728.59619	-890.33167	
2666	26.650	-701.25574	61.53680	-555.20709	713.38232	60.82922	-470.77625	-772.33173	-64.56739	656.80432	796.81592	-58.24247	662.38599	-7.43329	728.30096	-890.55261	
2667	26.660	-701.26306	61.05691	-555.36279	713.41656	60.64788	-470.88190	-772.25500	-64.38854	656.77039	796.97394	-57.96502	662.32129	-7.13917	727.78265	-890.92004	
2668	26.670	-701.29639	60.51612	-555.45331	713.42255	60.38514	-470.92859	-772.23126	-64.02225	656.82214	796.82507	-57.39564	661.97766	-7.34093	726.95685	-891.18854	
2669	26.680	-701.34595	60.20774	-555.55219	713.22809	60.15821	-471.22726	-772.12292	-63.58325	656.81836	796.91333	-57.31126	661.84082	-7.50320	726.58081	-891.62909	
2670	26.690	-701.37317	59.93887	-555.55383	713.25317	59.87026	-471.26849	-772.27130	-63.53847	656.72662	796.72382	-56.82310	661.78479	-7.45808	726.35974	-891.86261	
2671	26.700	-701.34277	59.78011	-555.59711	713.29346	59.78938	-471.42813	-772.24133	-63.27485	656.70856	796.81018	-56.79149	661.71466	-7.10815	725.82410	-892.52631	
2672	26.710	-701.34277	59.57188	-555.68536	713.44836	59.57834	-471.34399	-772.10541	-62.87051	656.75275	796.80115	-56.41757	661.80664	-7.15656	725.37408	-893.30542	
2673	26.720	-701.27850	59.25819	-555.89758	713.44757	59.14529	-471.55981	-772.25665	-62.57084	656.55878	796.89917	-55.80854	662.06995	-7.34249	724.99023	-893.72369	
